<svg width="162" height="39" viewBox="0 0 162 39" fill="none" xmlns="http://www.w3.org/2000/svg">
<path d="M159.457 24.1367C159.371 24.2693 159.306 24.9653 159.306 25.6613C159.306 27.0532 159.306 27.0532 158.237 26.5892C157.253 26.1584 156.269 26.6555 155.562 27.948C154.792 29.4063 154.834 30.8645 155.755 32.3559C156.354 33.3833 156.611 33.549 157.403 33.549C157.916 33.549 158.472 33.4165 158.644 33.2507C158.814 33.085 159.157 33.0519 159.414 33.2176C160.292 33.7478 160.376 33.2839 160.313 28.5777C160.27 24.8658 160.206 24.1035 159.949 24.0041C159.756 23.971 159.542 24.0041 159.457 24.1367ZM158.408 27.948C159.072 28.3126 159.649 29.9365 159.371 30.6988C158.644 32.7536 157.317 33.1844 156.418 31.693C155.584 30.3011 155.819 28.644 156.974 27.948C157.638 27.5172 157.638 27.5172 158.408 27.948Z" fill="white"/>
<path d="M37.1576 19.3357C37.1576 29.9109 28.8396 38.4839 18.5788 38.4839C8.31801 38.4839 0 29.9109 0 19.3357C0 8.76041 8.31801 0.1875 18.5788 0.1875C28.8396 0.1875 37.1576 8.76041 37.1576 19.3357ZM0.654066 19.3357C0.654066 29.5387 8.67924 37.8098 18.5788 37.8098C28.4784 37.8098 36.5035 29.5387 36.5035 19.3357C36.5035 9.13275 28.4784 0.861616 18.5788 0.861616C8.67924 0.861616 0.654066 9.13275 0.654066 19.3357Z" fill="url(#paint0_linear_1567_587)"/>
<path d="M6.97062 9.62861L5.96973 9.26562L3.36096 16.9642L4.36185 17.3272L6.97062 9.62861Z" fill="#8D368D"/>
<path d="M13.2134 7.75598L12.3611 7.84375L13.0924 15.388L13.9447 15.3002L13.2134 7.75598Z" fill="#8D368D"/>
<path d="M14.2351 7.02989L13.7854 7.78125L19.8335 11.6262L20.2832 10.8748L14.2351 7.02989Z" fill="#8D368D"/>
<path d="M6.8016 11.2908L6.34717 12.0391L11.8036 15.5588L12.2581 14.8105L6.8016 11.2908Z" fill="#8D368D"/>
<path d="M14.9077 14.9205L15.2034 15.5859L20.0556 13.296L19.7599 12.6305L14.9077 14.9205Z" fill="#8D368D"/>
<path d="M20.2917 10.4474L21.1465 10.3906L20.8033 4.90172L19.9486 4.95848L20.2917 10.4474Z" fill="#8D368D"/>
<path d="M21.9214 9.90024L22.4417 10.6016L26.6813 7.26094L26.1611 6.55962L21.9214 9.90024Z" fill="#8D368D"/>
<path d="M23.4321 11.5458L23.6091 12.4219L29.9972 11.0505L29.8202 10.1744L23.4321 11.5458Z" fill="#8D368D"/>
<path d="M14.2736 16.7811L13.4351 16.9609L15.255 25.9733L16.0936 25.7934L14.2736 16.7811Z" fill="#8D368D"/>
<path d="M15.2716 16.2214L14.908 16.8828L21.6001 20.791L21.9638 20.1296L15.2716 16.2214Z" fill="#8D368D"/>
<path d="M16.92 25.4428L17.3735 25.9297L22.2993 21.0556L21.8458 20.5687L16.92 25.4428Z" fill="#93278F"/>
<path d="M16.9236 25.4734L17.5569 26.0703L22.1559 20.8867L21.5226 20.2898L16.9236 25.4734Z" fill="#8D368D"/>
<path d="M21.9959 19.6724L22.0247 20.5547L28.1291 20.3432L28.1003 19.4609L21.9959 19.6724Z" fill="#8D368D"/>
<path d="M28.4802 18.9475L27.8062 19.4922L31.5746 24.4462L32.2487 23.9015L28.4802 18.9475Z" fill="#8D368D"/>
<path d="M27.985 19.3559L28.1982 20.2109L34.1138 18.6439L33.9006 17.7889L27.985 19.3559Z" fill="#8D368D"/>
<path d="M28.6895 18.5164L29.5176 18.7422L31.255 11.9741L30.4269 11.7484L28.6895 18.5164Z" fill="#8D368D"/>
<path d="M23.9442 13.9219L23.3713 14.5781L27.9118 18.7886L28.4847 18.1324L23.9442 13.9219Z" fill="#8D368D"/>
<path d="M23.709 28.1336L24.5303 27.8828L22.5906 21.135L21.7693 21.3857L23.709 28.1336Z" fill="#8D368D"/>
<path d="M24.7512 27.4961L25.5537 27.8047L28.1207 20.7122L27.3182 20.4037L24.7512 27.4961Z" fill="#8D368D"/>
<path d="M21.4285 19.3913L22.2842 19.3516L22.0449 13.8811L21.1892 13.9209L21.4285 19.3913Z" fill="#8D368D"/>
<path d="M5.25627 18.179L5.52979 19.0156L12.4434 16.6146L12.1699 15.778L5.25627 18.179Z" fill="#8D368D"/>
<path d="M8.0642 24.2156L8.802 24.6641L12.8675 17.5591L12.1297 17.1106L8.0642 24.2156Z" fill="#8D368D"/>
<path d="M19.163 4.62293L19.0059 3.74219L13.3758 4.8306L13.533 5.71134L19.163 4.62293Z" fill="#8D368D"/>
<path d="M26.0793 5.93179L26.291 5.0625L20.8278 3.6493L20.6161 4.51858L26.0793 5.93179Z" fill="#8D368D"/>
<path d="M30.7557 9.88166L31.3149 9.19531L27.0014 5.46212L26.4422 6.14847L30.7557 9.88166Z" fill="#8D368D"/>
<path d="M34.0237 16.8496L34.8179 16.4844L32.5301 11.2003L31.736 11.5655L34.0237 16.8496Z" fill="#8D368D"/>
<path d="M33.2475 23.3898L34.0649 23.6953L35.4711 19.6988L34.6537 19.3933L33.2475 23.3898Z" fill="#8D368D"/>
<path d="M25.6982 28.1843L25.8413 29.0547L31.3948 28.0849L31.2517 27.2145L25.6982 28.1843Z" fill="#8D368D"/>
<path d="M24.9214 30.0257L25.521 29.6406L27.1494 32.334L26.5498 32.7191L24.9214 30.0257Z" fill="#8D368D"/>
<path d="M11.2894 6.98443L10.687 6.125L6.2057 9.47069L6.80806 10.3301L11.2894 6.98443Z" fill="#8D368D"/>
<path d="M5.15539 19.9225L4.2644 20.5938L7.83304 25.6254L8.72402 24.9542L5.15539 19.9225Z" fill="#8D368D"/>
<path d="M9.03117 24.7002L8.7605 25.5391L14.6332 27.5198L14.9038 26.6809L9.03117 24.7002Z" fill="#8D368D"/>
<path d="M17.9173 27.6424L17.7534 28.4453L23.2584 29.0944L23.4223 28.2915L17.9173 27.6424Z" fill="#8D368D"/>
<path d="M27.4092 33.6028L27.9174 33.3516L29.2501 36.2152L28.7419 36.4664L27.4092 33.6028Z" fill="#8D368D"/>
<path d="M4.28915 20.8036C5.45688 20.8036 6.4035 19.828 6.4035 18.6245C6.4035 17.421 5.45688 16.4453 4.28915 16.4453C3.12143 16.4453 2.1748 17.421 2.1748 18.6245C2.1748 19.828 3.12143 20.8036 4.28915 20.8036Z" fill="url(#paint1_linear_1567_587)"/>
<path d="M3.48074 17.3547C4.19991 16.937 5.12933 17.2001 5.55709 17.9426C5.64964 18.1034 5.70908 18.2739 5.74128 18.4459C5.23156 17.9939 4.48572 17.8886 3.8794 18.2406C3.36538 18.5391 3.08405 19.0894 3.09285 19.6577C3.0423 19.5946 2.9943 19.5276 2.95263 19.4553C2.52516 18.7127 2.76171 17.7724 3.48074 17.3547Z" fill="#FEC070"/>
<path d="M33.0993 28.6922C34.5072 28.6922 35.6485 27.5159 35.6485 26.0649C35.6485 24.6138 34.5072 23.4375 33.0993 23.4375C31.6914 23.4375 30.55 24.6138 30.55 26.0649C30.55 27.5159 31.6914 28.6922 33.0993 28.6922Z" fill="url(#paint2_linear_1567_587)"/>
<path d="M32.4121 24.8559C33.2642 24.3837 34.3471 24.7143 34.8305 25.594C34.9349 25.7839 35.0001 25.9846 35.0339 26.1862C34.4474 25.6448 33.5759 25.5043 32.8573 25.9026C32.2476 26.2406 31.9057 26.8793 31.9035 27.5459C31.8456 27.4707 31.7917 27.3904 31.7444 27.3044C31.2612 26.4246 31.5598 25.3282 32.4121 24.8559Z" fill="#FEC070"/>
<path d="M16.1437 29.6515C17.501 29.6515 18.6012 28.5175 18.6012 27.1187C18.6012 25.7199 17.501 24.5859 16.1437 24.5859C14.7865 24.5859 13.6863 25.7199 13.6863 27.1187C13.6863 28.5175 14.7865 29.6515 16.1437 29.6515Z" fill="url(#paint3_linear_1567_587)"/>
<path d="M15.458 26.0363C16.1716 25.4012 17.2785 25.4842 17.9302 26.2218C18.0707 26.3808 18.1764 26.5583 18.252 26.7436C17.5749 26.3529 16.7123 26.4061 16.1112 26.941C15.6003 27.3956 15.4099 28.0806 15.5515 28.719C15.4796 28.6592 15.4096 28.5945 15.3457 28.5221C14.6942 27.7844 14.7446 26.6715 15.458 26.0363Z" fill="#FEC070"/>
<path d="M8.30324 26.0092C9.05508 26.0092 9.66458 25.3811 9.66458 24.6062C9.66458 23.8313 9.05508 23.2031 8.30324 23.2031C7.55139 23.2031 6.94189 23.8313 6.94189 24.6062C6.94189 25.3811 7.55139 26.0092 8.30324 26.0092Z" fill="url(#paint4_linear_1567_587)"/>
<path d="M7.88942 23.852C8.34858 23.6144 8.91851 23.8061 9.16187 24.28C9.21441 24.3825 9.24576 24.4901 9.26056 24.5978C8.95748 24.302 8.49752 24.215 8.11051 24.4155C7.78236 24.5855 7.59072 24.9184 7.57917 25.2716C7.54971 25.2309 7.5227 25.1878 7.49901 25.1416C7.25559 24.6676 7.43023 24.0899 7.88942 23.852Z" fill="#FEC070"/>
<path d="M6.3747 12.6696C7.34534 12.6696 8.13221 11.8586 8.13221 10.8582C8.13221 9.85785 7.34534 9.04688 6.3747 9.04688C5.40405 9.04688 4.61719 9.85785 4.61719 10.8582C4.61719 11.8586 5.40405 12.6696 6.3747 12.6696Z" fill="url(#paint5_linear_1567_587)"/>
<path d="M5.8088 9.95521C6.32245 9.69277 6.95595 9.90959 7.2246 10.4397C7.28241 10.5539 7.31757 10.6735 7.3336 10.7931C6.99736 10.4614 6.48447 10.361 6.05155 10.5822C5.68392 10.77 5.46797 11.1417 5.45341 11.5362C5.4208 11.4906 5.39048 11.4421 5.36434 11.3905C5.09591 10.8602 5.29512 10.2177 5.8088 9.95521Z" fill="#FEC070"/>
<path d="M22.0027 21.831C22.8868 21.831 23.6035 21.0923 23.6035 20.1811C23.6035 19.2699 22.8868 18.5312 22.0027 18.5312C21.1186 18.5312 20.4019 19.2699 20.4019 20.1811C20.4019 21.0923 21.1186 21.831 22.0027 21.831Z" fill="url(#paint6_linear_1567_587)"/>
<path d="M21.7458 19.3779C22.3107 19.1832 22.9296 19.4981 23.1281 20.081C23.1706 20.2062 23.1888 20.3335 23.1879 20.4583C22.8912 20.0693 22.3797 19.8921 21.9036 20.0562C21.4998 20.1955 21.225 20.5445 21.1526 20.9464C21.126 20.8955 21.1018 20.8423 21.0826 20.7861C20.8842 20.2033 21.181 19.5727 21.7458 19.3779Z" fill="#FEC070"/>
<path d="M28.7459 21.2562C29.6853 21.2562 30.4468 20.4713 30.4468 19.5031C30.4468 18.5349 29.6853 17.75 28.7459 17.75C27.8065 17.75 27.0449 18.5349 27.0449 19.5031C27.0449 20.4713 27.8065 21.2562 28.7459 21.2562Z" fill="url(#paint7_linear_1567_587)"/>
<path d="M28.418 18.7103C28.9163 18.4856 29.5063 18.7203 29.7362 19.2344C29.786 19.346 29.8132 19.4616 29.8226 19.5764C29.5196 19.247 29.0393 19.128 28.6193 19.3175C28.2634 19.4782 28.0428 19.8191 28.0104 20.191C27.9814 20.1463 27.9545 20.0994 27.932 20.0492C27.702 19.5349 27.9199 18.9352 28.418 18.7103Z" fill="#FEC070"/>
<path d="M15.4788 16.1089C15.4788 17.2175 14.6068 18.1162 13.5311 18.1162C12.4555 18.1162 11.5835 17.2175 11.5835 16.1089C11.5835 15.0003 12.4555 14.1016 13.5311 14.1016C14.6068 14.1016 15.4788 15.0003 15.4788 16.1089Z" fill="url(#paint8_linear_1567_587)"/>
<path d="M12.8797 15.175C13.4014 14.7917 14.1428 14.9175 14.5359 15.4564C14.6219 15.5743 14.6818 15.7031 14.721 15.8351C14.2887 15.5275 13.7024 15.5086 13.2624 15.832C12.8908 16.105 12.7192 16.5519 12.7718 16.9894C12.7275 16.9449 12.6846 16.8974 12.6463 16.8449C12.2534 16.306 12.3582 15.5584 12.8797 15.175Z" fill="#FEC070"/>
<path d="M20.493 5.75986C21.3895 5.75986 22.1162 5.01088 22.1162 4.08696C22.1162 3.16305 21.3895 2.41406 20.493 2.41406C19.5966 2.41406 18.8699 3.16305 18.8699 4.08696C18.8699 5.01088 19.5966 5.75986 20.493 5.75986Z" fill="url(#paint9_linear_1567_587)"/>
<path d="M20.2833 3.31581C20.8528 3.149 21.4515 3.48957 21.6212 4.07691C21.658 4.20402 21.6704 4.33205 21.6634 4.45666C21.3874 4.05655 20.8888 3.85593 20.4088 3.99638C20.0014 4.11574 19.7119 4.44975 19.6215 4.84544C19.5972 4.79304 19.5764 4.73819 19.5597 4.68086C19.3901 4.09358 19.714 3.48269 20.2833 3.31581Z" fill="#FEC070"/>
<path d="M27.3191 7.99114C28.328 7.73598 28.9452 6.68616 28.6976 5.64631C28.4501 4.60646 27.4315 3.97034 26.4225 4.2255C25.4136 4.48065 24.7964 5.53047 25.044 6.57032C25.2915 7.61017 26.3101 8.24629 27.3191 7.99114Z" fill="url(#paint10_linear_1567_587)"/>
<path d="M26.5077 5.11917C27.0737 4.85461 27.7446 5.11454 28.0061 5.69932C28.0642 5.82951 28.0955 5.96526 28.1054 6.0999C27.761 5.72657 27.2143 5.59718 26.7366 5.82035C26.3347 6.0083 26.084 6.39792 26.0448 6.82092C26.0117 6.76985 25.9818 6.71536 25.956 6.6578C25.6948 6.07284 25.9416 5.38386 26.5077 5.11917Z" fill="#FEC070"/>
<path d="M31.6293 12.073C32.5583 11.8381 33.1266 10.8715 32.8986 9.91406C32.6707 8.95663 31.7328 8.37093 30.8039 8.60586C29.8749 8.8408 29.3066 9.8074 29.5346 10.7648C29.7625 11.7223 30.7004 12.308 31.6293 12.073Z" fill="url(#paint11_linear_1567_587)"/>
<path d="M30.8396 9.45928C31.3385 9.21269 31.9631 9.47837 32.2347 10.0523C32.2926 10.1746 32.328 10.3013 32.3459 10.4271C32.0111 10.059 31.5082 9.92445 31.0881 10.1322C30.7303 10.3092 30.5249 10.6885 30.518 11.1042C30.4853 11.0542 30.4544 11.0017 30.4279 10.9458C30.1562 10.3717 30.3407 9.70596 30.8396 9.45928Z" fill="#FEC070"/>
<path d="M35.2766 19.9253C36.2056 19.6904 36.7647 18.6852 36.5254 17.6801C36.2861 16.675 35.339 16.0506 34.4101 16.2855C33.4811 16.5205 32.922 17.5257 33.1613 18.5308C33.4006 19.5359 34.3477 20.1603 35.2766 19.9253Z" fill="url(#paint12_linear_1567_587)"/>
<path d="M34.6024 17.1626C35.203 16.9701 35.8414 17.3163 36.0284 17.9351C36.0695 18.0713 36.0835 18.2094 36.0769 18.344C35.7796 17.927 35.2492 17.7285 34.743 17.891C34.3152 18.0283 34.0152 18.388 33.9232 18.8082C33.8962 18.7525 33.8726 18.6943 33.8541 18.6329C33.6671 18.014 34.002 17.3554 34.6024 17.1626Z" fill="#FEC070"/>
<path d="M12.6139 8.53267C13.9183 8.53267 14.9758 7.4428 14.9758 6.09837C14.9758 4.75394 13.9183 3.66406 12.6139 3.66406C11.3094 3.66406 10.252 4.75394 10.252 6.09837C10.252 7.4428 11.3094 8.53267 12.6139 8.53267Z" fill="url(#paint13_linear_1567_587)"/>
<path d="M12.2323 4.78369C13.0298 4.448 13.9549 4.84298 14.2978 5.66602C14.373 5.84658 14.4112 6.03314 14.4209 6.21729C13.9547 5.68353 13.1988 5.47631 12.5266 5.75927C11.9583 5.99853 11.5959 6.52651 11.5281 7.11194C11.4837 7.0394 11.4429 6.96298 11.4091 6.88183C11.0664 6.05882 11.435 5.11949 12.2323 4.78369Z" fill="#FEC070"/>
<path d="M21.8015 9.8125C23.207 9.81268 24.3422 10.9863 24.3422 12.4293C24.3422 13.8724 23.207 15.0459 21.8015 15.0461C20.3959 15.0461 19.26 13.8725 19.26 12.4293C19.26 10.9862 20.3959 9.8125 21.8015 9.8125Z" fill="url(#paint14_linear_1567_587)" stroke="#665553" stroke-width="0.147342"/>
<path d="M21.1473 10.711C22.0353 10.3441 23.0904 10.8671 23.5041 11.8791C23.593 12.0967 23.6427 12.3192 23.6608 12.538C23.1177 11.8698 22.2592 11.5823 21.5108 11.8913C20.875 12.1541 20.4828 12.7796 20.4288 13.4886C20.377 13.3996 20.3293 13.3063 20.2891 13.2076C19.8752 12.1956 20.2594 11.0779 21.1473 10.711Z" fill="#FEC070"/>
<path d="M24.329 31.0107C25.3868 31.0107 26.2444 30.1269 26.2444 29.0366C26.2444 27.9463 25.3868 27.0625 24.329 27.0625C23.2711 27.0625 22.4136 27.9463 22.4136 29.0366C22.4136 30.1269 23.2711 31.0107 24.329 31.0107Z" fill="url(#paint15_linear_1567_587)"/>
<path d="M24.0273 28.2156C24.6544 27.981 25.357 28.3153 25.5966 28.9622C25.6488 29.1032 25.6733 29.2475 25.6754 29.3893C25.3316 28.9616 24.7535 28.7775 24.2247 28.9755C23.777 29.1431 23.4803 29.5411 23.4102 29.9926C23.3784 29.9355 23.3496 29.8755 23.3261 29.8122C23.0868 29.1652 23.4005 28.4506 24.0273 28.2156Z" fill="#FEC070"/>
<path d="M27.1509 34.059C27.9852 34.059 28.6615 33.362 28.6615 32.5022C28.6615 31.6423 27.9852 30.9453 27.1509 30.9453C26.3167 30.9453 25.6404 31.6423 25.6404 32.5022C25.6404 33.362 26.3167 34.059 27.1509 34.059Z" fill="url(#paint16_linear_1567_587)"/>
<path d="M26.7378 31.7184C27.1864 31.4749 27.7524 31.6531 28.0017 32.1162C28.0566 32.2183 28.0895 32.3262 28.1059 32.4343C27.8012 32.1477 27.3458 32.0696 26.9674 32.2749C26.6481 32.4483 26.466 32.7784 26.4599 33.1255C26.4298 33.0858 26.4013 33.0437 26.3769 32.9984C26.1276 32.5352 26.2893 31.962 26.7378 31.7184Z" fill="#FEC070"/>
<path d="M29.2911 37.4749C29.8684 37.4749 30.3363 36.9925 30.3363 36.3976C30.3363 35.8026 29.8684 35.3203 29.2911 35.3203C28.7138 35.3203 28.2458 35.8026 28.2458 36.3976C28.2458 36.9925 28.7138 37.4749 29.2911 37.4749Z" fill="url(#paint17_linear_1567_587)"/>
<path d="M29.237 35.6033C29.7198 35.5728 30.135 35.952 30.1646 36.4495C30.171 36.5577 30.1573 36.6621 30.1291 36.7602C29.9808 36.3936 29.6206 36.1455 29.2143 36.1712C28.8695 36.193 28.5804 36.406 28.4372 36.7035C28.427 36.657 28.4196 36.6092 28.4167 36.56C28.3871 36.0625 28.7543 35.6339 29.237 35.6033Z" fill="#FEC070"/>
<path d="M45.4917 17.5063C48.0865 17.5063 49.5579 17.1289 50.3243 16.28L50.3259 16.2783C50.7717 15.8072 51.0049 14.9419 51.0049 14.0642C51.0048 13.1861 50.7708 12.3337 50.3268 11.8854L50.3259 11.8845C50.1735 11.7253 50.0531 11.5947 49.9719 11.4766C49.8895 11.3566 49.8411 11.2409 49.8427 11.1122C49.8444 10.9859 49.8942 10.8611 49.977 10.7223C50.0599 10.5837 50.1827 10.4212 50.3405 10.2178C50.8399 9.57253 50.9722 8.63135 50.792 7.7421C50.6117 6.85307 50.1233 6.03699 49.4084 5.63499L49.4066 5.63415C49.293 5.56649 49.117 5.50144 48.8901 5.44259C48.6648 5.38416 48.3946 5.33313 48.0949 5.28951C47.495 5.20224 46.7817 5.14679 46.0835 5.12618C45.3853 5.10558 44.7047 5.12014 44.1696 5.17235C43.9019 5.19849 43.6728 5.23329 43.4975 5.27754C43.4098 5.29969 43.3374 5.32431 43.2812 5.34937C43.2239 5.3749 43.1892 5.39886 43.1708 5.41864L43.1683 5.42121C43.0438 5.54685 42.9554 5.7635 42.9065 6.5902C42.8583 7.40865 42.8484 8.79545 42.8484 11.2234C42.8484 12.9218 42.8691 14.3444 42.9049 15.3744C42.9227 15.8892 42.9443 16.3051 42.969 16.6084C42.9813 16.7599 42.9939 16.8825 43.0075 16.9744C43.0215 17.0693 43.0346 17.1216 43.0434 17.1411C43.0898 17.2255 43.1346 17.2825 43.1999 17.3267C43.2684 17.3729 43.3687 17.4108 43.536 17.4388C43.8737 17.4951 44.4469 17.5063 45.4917 17.5063ZM46.6556 10.1922C46.2588 10.1922 45.9495 10.1882 45.7123 10.1562C45.4753 10.1242 45.2931 10.0623 45.1642 9.93305C45.0354 9.80371 44.9743 9.62165 44.9427 9.38487C44.9111 9.14791 44.9076 8.83906 44.9076 8.44334C44.9077 7.73676 45.0944 7.2522 45.5473 7.03233C45.9859 6.81943 46.6409 6.87505 47.5201 7.14007C48.1851 7.34528 48.6509 7.75954 48.8448 8.24323C49.0398 8.72995 48.955 9.27576 48.5429 9.72096C48.3679 9.91002 48.1834 10.0306 47.8939 10.1014C47.611 10.1706 47.2273 10.1922 46.6556 10.1922ZM46.736 15.4958C46.4078 15.5168 46.0829 15.5068 45.8107 15.4608C45.5441 15.4157 45.3069 15.3333 45.177 15.1931C45.1228 15.1344 45.0825 15.0482 45.0505 14.9528C45.0177 14.8552 44.991 14.7385 44.9701 14.6108C44.9282 14.3549 44.9076 14.0463 44.9076 13.7393C44.9076 13.4324 44.9282 13.1238 44.9701 12.8679C44.991 12.7401 45.0177 12.6234 45.0505 12.5258C45.0825 12.4305 45.1229 12.3442 45.177 12.2856C45.2288 12.2296 45.3136 12.187 45.4062 12.1539C45.5023 12.1195 45.6214 12.0906 45.7534 12.0666C46.0176 12.0187 46.3447 11.9905 46.6761 11.9905C47.1759 11.9905 47.5117 12.0116 47.775 12.0966C48.0447 12.1836 48.2316 12.3352 48.442 12.5737L48.4412 12.5746C48.8016 12.9537 48.9819 13.3996 48.9765 13.8342C48.971 14.2702 48.7795 14.6869 48.4129 15.0016C48.2442 15.1474 47.9841 15.26 47.6929 15.341C47.3995 15.4226 47.0643 15.4748 46.736 15.4958Z" fill="#FFAA0F" stroke="#FFAA0F" stroke-width="0.188031"/>
<path d="M60.8529 17.5114C61.8235 17.5114 62.559 17.5088 63.1157 17.4841C63.6747 17.4593 64.0435 17.4127 64.2847 17.3293C64.4035 17.2882 64.4869 17.2395 64.5464 17.1839C64.605 17.129 64.6445 17.0633 64.6695 16.9821C64.7218 16.8127 64.7125 16.5806 64.6815 16.2458H64.6806L64.6268 15.6002L62.0545 15.4933L59.3984 15.3829L59.3103 15.3787L59.3085 15.2906L59.2059 10.3922C59.1753 9.04711 59.1347 7.81241 59.0939 6.90323C59.0735 6.44847 59.0531 6.0754 59.034 5.81119C59.0244 5.679 59.0151 5.57478 59.0067 5.50162C59.0024 5.46503 58.999 5.43749 58.9955 5.41867L58.9938 5.41439C58.9738 5.39681 58.9444 5.3753 58.9006 5.35539C58.8485 5.33171 58.783 5.31032 58.7074 5.29125C58.5559 5.25311 58.3698 5.22764 58.1789 5.21685C57.9882 5.2061 57.7955 5.20981 57.6307 5.22968C57.5042 5.24495 57.4011 5.26886 57.3289 5.29809L57.2673 5.32887C57.2067 5.37025 57.1555 5.42635 57.1116 5.57003C57.0654 5.72177 57.0294 5.96375 57.0039 6.37217C56.953 7.18766 56.9431 8.63502 56.9431 11.2731C56.9431 13.3801 56.9588 14.8456 56.9971 15.8089C57.0161 16.2907 57.0403 16.645 57.0714 16.8897C57.087 17.0123 57.1042 17.1052 57.1218 17.1719C57.1407 17.2427 57.1569 17.2705 57.1629 17.2771C57.1683 17.2829 57.1876 17.2972 57.2348 17.3148C57.2798 17.3316 57.3422 17.3483 57.4238 17.3643C57.5867 17.3964 57.8175 17.4236 58.1224 17.4456C58.7318 17.4895 59.628 17.5114 60.8529 17.5114Z" fill="#FFAA0F" stroke="#FFAA0F" stroke-width="0.188031"/>
<path d="M74.1107 17.5788C74.6394 17.5897 74.9857 17.5677 75.3011 17.4779C75.6163 17.3882 75.9081 17.229 76.3247 16.9545C77.1012 16.4317 77.5808 15.932 77.8828 15.1912C78.1494 14.5375 78.2801 13.6898 78.3429 12.4615L78.366 11.9108C78.4884 8.67094 78.0976 7.16444 76.9653 6.09147C76.4822 5.65561 75.7303 5.3413 74.9044 5.19441C74.0791 5.04769 73.1913 5.06998 72.4424 5.29618C72.0951 5.41084 71.633 5.74037 71.2152 6.14792C70.7979 6.55489 70.4412 7.02363 70.295 7.40243C70.2559 7.50447 70.2181 7.68606 70.1838 7.93519C70.15 8.18192 70.1211 8.48792 70.0966 8.83399C70.0477 9.52569 70.0179 10.3743 70.0103 11.2249C70.0026 12.0758 70.0172 12.9281 70.0547 13.6255C70.0735 13.9739 70.0977 14.2829 70.1283 14.5336C70.159 14.7865 70.1949 14.9732 70.2343 15.0809L70.2351 15.0826C70.7507 16.582 72.2629 17.557 74.1107 17.5788ZM75.7321 14.8884C75.0495 15.6717 74.0226 15.8557 73.0871 15.3742C72.8349 15.2493 72.6271 15.1073 72.4611 14.9124C72.2951 14.7175 72.1752 14.475 72.0883 14.1565C71.9159 13.5245 71.8702 12.5737 71.8702 11.0539V8.47907L71.8951 8.45254L72.5894 7.70173C73.0187 7.23796 73.4934 6.96949 73.9739 6.9167C74.4564 6.86377 74.9317 7.0305 75.3567 7.40927L75.3559 7.41012C75.763 7.74695 76.0217 8.20807 76.1674 8.91604C76.2946 9.53427 76.3374 10.3455 76.3188 11.4336L76.3068 11.9168C76.2762 12.9729 76.2508 13.5827 76.1751 13.9914C76.1369 14.198 76.085 14.357 76.0117 14.4985C75.9753 14.5689 75.9342 14.6341 75.8877 14.6978L75.7321 14.8884Z" fill="#FFAA0F" stroke="#FFAA0F" stroke-width="0.188031"/>
<path d="M87.8002 17.4766C88.8247 17.5314 89.5708 17.4311 90.1829 17.1115C90.7932 16.7923 91.2836 16.2471 91.7793 15.3832C92.1462 14.7561 92.2819 14.3025 92.2206 13.9893C92.1628 13.6943 91.9185 13.4895 91.4132 13.3822C91.2144 13.3435 91.0691 13.3226 90.9439 13.3334C90.8239 13.3438 90.7188 13.3836 90.6015 13.4762C90.4815 13.5714 90.3502 13.7224 90.1811 13.9559C90.0121 14.1889 89.8107 14.4985 89.5498 14.9069L89.548 14.9095L89.4228 15.0839C89.3002 15.2417 89.1802 15.351 89.0104 15.4132C88.7914 15.4929 88.4998 15.4904 88.034 15.4576C87.5671 15.4247 87.2708 15.3859 87.0409 15.2618C86.8077 15.1358 86.6536 14.928 86.45 14.5982C86.2297 14.2582 86.1064 13.9916 86.0404 13.5233C85.9754 13.063 85.9651 12.4048 85.9651 11.2819C85.9651 10.3001 85.9861 9.63349 86.0404 9.15345C86.0948 8.67217 86.1836 8.37085 86.3252 8.1238C86.5822 7.66853 86.8107 7.36626 87.0931 7.1797C87.3781 6.99141 87.7056 6.92915 88.1434 6.92915C88.5892 6.9292 88.9482 7.03918 89.2669 7.29772C89.5813 7.55313 89.8484 7.94829 90.126 8.50352L90.1286 8.50859C90.2065 8.68645 90.3178 8.85344 90.4325 8.97472C90.4894 9.03532 90.5463 9.0826 90.5971 9.11404C90.6234 9.13024 90.647 9.14136 90.6671 9.14828L90.7162 9.15765H90.7232C91.3721 9.20152 91.7924 9.11062 92.0157 8.91657C92.2267 8.73216 92.2863 8.42707 92.1383 7.95705C91.9597 7.4087 91.5989 6.81232 91.1829 6.32284C90.7661 5.83127 90.3064 5.46264 89.9351 5.34881C89.4062 5.19816 88.6469 5.13692 87.914 5.16153C87.179 5.18626 86.4894 5.29676 86.0985 5.47623C85.6657 5.67847 85.2314 6.04311 84.8705 6.48703C84.5097 6.93099 84.2262 7.44912 84.0872 7.95277L84.0863 7.95533L84.0615 8.05025C84.0063 8.30036 83.9639 8.75361 83.9393 9.34925C83.9113 10.0253 83.906 10.8731 83.9264 11.7873C83.9674 13.5336 84.0399 14.5333 84.2745 15.2259C84.5052 15.9073 84.8953 16.2954 85.6042 16.8096L85.6051 16.8105C85.9261 17.0488 86.1922 17.1974 86.5158 17.2954C86.8416 17.394 87.2305 17.4437 87.8002 17.4766Z" fill="#FFAA0F" stroke="#FFAA0F" stroke-width="0.188031"/>
<path d="M105.588 17.5136C105.869 17.5136 106.1 17.4866 106.265 17.4401C106.347 17.4169 106.409 17.3896 106.453 17.3614C106.495 17.334 106.513 17.3096 106.52 17.2922C106.535 17.2446 106.534 17.1524 106.483 16.9886C106.434 16.8289 106.343 16.6165 106.204 16.337C105.994 15.9177 105.678 15.3554 105.236 14.607L104.752 13.7945C104.323 13.0662 103.73 12.0504 103.423 11.5207L103.422 11.5199C103.274 11.257 103.146 11.0548 103.081 10.8656C103.013 10.6654 103.013 10.4764 103.105 10.2354C103.194 10.0013 103.37 9.71421 103.652 9.31271C103.934 8.9098 104.329 8.38334 104.859 7.66735C105.235 7.16208 105.57 6.66219 105.806 6.26576C105.923 6.06729 106.015 5.89607 106.075 5.76377C106.105 5.69747 106.126 5.64253 106.138 5.60044C106.143 5.57981 106.148 5.56377 106.148 5.5517C106.149 5.54343 106.149 5.53828 106.149 5.53631C106.137 5.47657 106.116 5.4335 106.086 5.40034C106.056 5.36697 106.012 5.33692 105.941 5.31311C105.796 5.26393 105.56 5.24649 105.183 5.25752H105.18C104.752 5.25752 104.499 5.28554 104.304 5.37297C104.112 5.45911 103.966 5.60788 103.764 5.88093L102.661 7.36036L102.659 7.36206L102.357 7.75629C102.034 8.18879 101.668 8.70831 101.438 9.05438L101.437 9.05525C101.193 9.4191 100.989 9.6861 100.82 9.83776C100.737 9.91281 100.652 9.9692 100.567 9.98742C100.472 10.0076 100.387 9.9784 100.321 9.90791C100.26 9.84354 100.218 9.74766 100.187 9.6325C100.154 9.51516 100.13 9.36717 100.111 9.1895C100.075 8.8338 100.061 8.34674 100.061 7.72294C100.061 7.02936 100.04 6.47036 99.9994 6.06394C99.9792 5.8607 99.9538 5.69777 99.9249 5.5765C99.8943 5.45014 99.8628 5.38401 99.84 5.35929C99.7428 5.25418 99.5379 5.17972 99.2542 5.16089C98.9757 5.14242 98.6394 5.17878 98.3006 5.27548L98.2979 5.27633C98.2655 5.28465 98.2436 5.29591 98.2244 5.31396C98.2051 5.33307 98.1823 5.3665 98.1596 5.43027C98.114 5.56155 98.079 5.79311 98.0545 6.20846C98.0063 7.0351 98.002 8.54859 98.002 11.3411V17.3152L98.4197 17.429L98.4205 17.4281C98.6736 17.4911 99.1517 17.5135 99.4468 17.4709L99.4495 17.47L99.9617 17.4135L100.061 15.463C100.102 14.6798 100.147 14.1437 100.224 13.7586C100.299 13.3723 100.406 13.1291 100.573 12.936V12.9351C100.69 12.7971 100.824 12.676 100.945 12.5888C101.006 12.5453 101.065 12.5094 101.118 12.4836C101.17 12.459 101.226 12.4392 101.278 12.4391C101.32 12.4391 101.36 12.4562 101.391 12.4742C101.423 12.4933 101.457 12.5198 101.492 12.5503C101.561 12.6116 101.641 12.6983 101.728 12.8026C101.902 13.0118 102.112 13.3019 102.327 13.6287C102.758 14.2821 103.22 15.0925 103.488 15.7169L103.489 15.7178C103.586 15.9487 103.906 16.4485 104.211 16.8441L104.211 16.8432C104.445 17.1397 104.608 17.3019 104.796 17.3939C104.986 17.4859 105.211 17.5136 105.588 17.5136Z" fill="#FFAA0F" stroke="#FFAA0F" stroke-width="0.188031"/>
<path d="M120.135 17.5171C120.262 17.5139 120.36 17.5015 120.439 17.4719C120.581 17.4182 120.691 17.2954 120.765 16.9366C120.839 16.5756 120.872 16.005 120.886 15.1031C120.9 14.2033 120.896 12.9815 120.896 11.3207C120.896 9.68759 120.898 8.47915 120.883 7.58453C120.869 6.68845 120.838 6.11356 120.771 5.74422C120.706 5.37272 120.608 5.23899 120.491 5.18068C120.428 5.14939 120.348 5.13436 120.243 5.12851C120.136 5.12259 120.015 5.12595 119.866 5.12595C119.578 5.12595 119.388 5.12758 119.248 5.17811C119.184 5.2019 119.132 5.23655 119.089 5.28757C119.044 5.33966 119.005 5.41299 118.973 5.52017C118.906 5.7373 118.871 6.07158 118.853 6.58997C118.836 7.10611 118.837 7.79501 118.837 8.71672C118.837 10.2478 118.826 11.1038 118.777 11.5678C118.754 11.7954 118.719 11.9486 118.656 12.0399C118.623 12.0898 118.579 12.125 118.524 12.1408C118.473 12.1556 118.42 12.1504 118.375 12.1408L118.373 12.1399C118.308 12.1243 118.239 12.0831 118.174 12.0322C118.106 11.9796 118.034 11.9097 117.962 11.8295C117.82 11.6698 117.673 11.4602 117.557 11.2335C117.31 10.7902 116.986 10.1984 116.804 9.91483C116.619 9.62427 116.024 8.56199 115.493 7.56998L115.493 7.56913C115.228 7.06291 114.958 6.57914 114.737 6.20858C114.627 6.02345 114.529 5.86718 114.451 5.75107C114.411 5.69293 114.376 5.64543 114.349 5.60996C114.319 5.57272 114.301 5.55457 114.293 5.54839L114.287 5.54326C114.204 5.46763 114.07 5.39785 113.903 5.34144C113.738 5.28558 113.547 5.24453 113.357 5.22172C113.167 5.19891 112.979 5.1952 112.823 5.21061C112.662 5.22638 112.548 5.26151 112.487 5.30638L112.485 5.30724C112.472 5.31676 112.453 5.33771 112.431 5.3842C112.409 5.43081 112.388 5.49784 112.367 5.59286C112.325 5.78333 112.29 6.07227 112.261 6.50274C112.203 7.36302 112.167 8.7732 112.136 11.0573C112.116 12.9983 112.116 14.4418 112.141 15.4383C112.154 15.9367 112.174 16.3224 112.199 16.6013C112.212 16.7407 112.226 16.8524 112.242 16.9373C112.259 17.0247 112.276 17.0762 112.289 17.1015L112.291 17.1058C112.366 17.2674 112.454 17.3638 112.587 17.424C112.726 17.4869 112.924 17.5146 113.227 17.5146C113.433 17.5146 113.639 17.483 113.803 17.4333C113.885 17.4086 113.955 17.3795 114.009 17.3495C114.063 17.3196 114.093 17.2921 114.107 17.2718C114.108 17.2691 114.109 17.2646 114.111 17.258C114.114 17.2428 114.119 17.2212 114.123 17.193C114.131 17.1367 114.14 17.059 114.147 16.9621C114.162 16.7686 114.172 16.5023 114.18 16.1831C114.191 15.7045 114.194 15.1079 114.186 14.4583L114.175 13.7938C114.155 12.7026 114.149 11.8785 114.191 11.3276C114.211 11.0534 114.245 10.8388 114.296 10.6904C114.345 10.5494 114.429 10.4225 114.578 10.4237C114.646 10.4242 114.71 10.4521 114.769 10.4921C114.829 10.5324 114.892 10.5905 114.957 10.6622C115.087 10.8058 115.239 11.0176 115.414 11.2933C115.766 11.8457 116.226 12.6715 116.824 13.7682C117.313 14.6612 117.788 15.5046 118.157 16.1438C118.342 16.4634 118.501 16.7321 118.621 16.9296C118.682 17.0283 118.733 17.1087 118.773 17.1691C118.814 17.2316 118.84 17.2674 118.852 17.2803C118.906 17.3386 119.02 17.3991 119.175 17.4445C119.327 17.4888 119.508 17.5146 119.682 17.5146C119.861 17.5146 120.005 17.5205 120.135 17.5171Z" fill="#FFAA0F" stroke="#FFAA0F" stroke-width="0.188031"/>
<path d="M129.797 17.4907L130.895 17.4778L134.494 17.4128L134.603 16.8288C134.659 16.4961 134.687 16.2541 134.66 16.0745C134.648 15.987 134.622 15.9175 134.583 15.8607C134.544 15.8043 134.489 15.7551 134.409 15.7128C134.246 15.626 133.986 15.5718 133.583 15.5409C133.183 15.5102 132.654 15.5032 131.958 15.5032C131.12 15.5032 130.468 15.4811 130.004 15.4366C129.772 15.4143 129.584 15.3865 129.443 15.3519C129.372 15.3346 129.31 15.3151 129.259 15.2929C129.21 15.2712 129.164 15.2438 129.132 15.2082C129.074 15.1457 129.029 15.0596 128.995 14.9636C128.959 14.8666 128.932 14.7531 128.912 14.6302C128.871 14.384 128.857 14.0922 128.867 13.8006C128.878 13.5091 128.913 13.2147 128.971 12.9634C129.029 12.7183 129.113 12.4996 129.231 12.37V12.3691C129.378 12.1992 129.541 12.0993 129.778 12.0595C130.007 12.0212 130.306 12.0395 130.725 12.0946L130.724 12.0954C131.445 12.1833 131.956 12.1519 132.281 12.0108C132.441 11.9413 132.555 11.846 132.629 11.7261C132.704 11.6054 132.743 11.4521 132.743 11.2608C132.743 10.794 132.656 10.5539 132.416 10.4126C132.289 10.3377 132.111 10.2853 131.859 10.2526C131.609 10.22 131.294 10.2082 130.896 10.2082C130.464 10.2082 130.07 10.1798 129.766 10.132C129.614 10.1082 129.481 10.0789 129.376 10.0448C129.275 10.0121 129.185 9.97059 129.132 9.91306C129.083 9.86008 129.044 9.78005 129.013 9.6916C128.982 9.60079 128.955 9.49081 128.932 9.36918C128.887 9.12574 128.862 8.82774 128.862 8.5252C128.862 8.17793 128.878 7.89492 128.952 7.67173C129.028 7.44126 129.168 7.27582 129.4 7.16377C129.626 7.05496 129.939 6.99774 130.363 6.96965C130.788 6.94145 131.337 6.94152 132.042 6.95254C132.672 6.96353 133.257 6.94704 133.697 6.91149C133.918 6.89371 134.1 6.87128 134.234 6.84565C134.301 6.83281 134.353 6.81933 134.392 6.80631C134.429 6.79367 134.442 6.78492 134.443 6.78408C134.454 6.77236 134.472 6.74092 134.49 6.68146C134.507 6.62488 134.522 6.55258 134.534 6.46938C134.556 6.30277 134.561 6.10025 134.542 5.90925L134.541 5.90668L134.486 5.24222L130.895 5.17724C129.547 5.15517 128.61 5.16041 127.988 5.19605C127.677 5.21388 127.448 5.23916 127.287 5.27131C127.206 5.28738 127.146 5.30478 127.101 5.32261C127.055 5.34088 127.033 5.35765 127.023 5.36794C127.027 5.36328 127.021 5.36732 127.012 5.39787C127.003 5.42452 126.994 5.46196 126.985 5.51075C126.967 5.60825 126.95 5.74359 126.934 5.91181C126.901 6.24774 126.874 6.70931 126.852 7.25612C126.809 8.34962 126.789 9.77908 126.79 11.2138C126.791 12.6485 126.815 14.0877 126.861 15.2005C126.884 15.7571 126.914 16.2311 126.948 16.5816C126.964 16.757 126.983 16.9004 127.002 17.0066C127.012 17.0597 127.022 17.1021 127.031 17.134C127.041 17.1681 127.049 17.1832 127.052 17.1871L127.054 17.1896C127.1 17.2633 127.155 17.3177 127.259 17.3606C127.368 17.4058 127.533 17.4397 127.801 17.4616C128.205 17.4943 128.823 17.4994 129.797 17.4907Z" fill="#FFAA0F" stroke="#FFAA0F" stroke-width="0.188031"/>
<path d="M144.221 17.5379C145.05 17.5351 145.871 17.3607 146.476 17.0179V17.0188C146.97 16.7305 147.418 16.2517 147.744 15.7001C148.069 15.1484 148.266 14.5306 148.266 13.9667C148.266 12.529 146.991 11.2272 144.714 10.4366C143.635 10.063 142.99 9.79915 142.617 9.49424C142.427 9.33871 142.305 9.17067 142.232 8.97172C142.16 8.77521 142.138 8.55402 142.138 8.29613C142.138 7.55565 142.668 7.08959 143.338 6.96212C144.007 6.83516 144.829 7.03814 145.463 7.63171L145.463 7.63256C145.661 7.82333 145.844 8.0315 145.977 8.21579C146.044 8.30769 146.1 8.39534 146.14 8.47319C146.178 8.54771 146.208 8.62547 146.208 8.69299C146.208 8.74474 146.235 8.80245 146.304 8.86226C146.373 8.92215 146.477 8.97741 146.608 9.02049C146.869 9.10657 147.217 9.13836 147.549 9.08547H147.553C147.734 9.06489 147.83 9.01594 147.892 8.92215C147.961 8.81804 148.001 8.64255 148.021 8.33378V8.33212C148.099 7.40589 147.452 6.31084 146.492 5.68366C146.28 5.54922 145.95 5.4342 145.551 5.34673C145.153 5.25976 144.695 5.20133 144.237 5.17399C143.777 5.14665 143.318 5.15047 142.918 5.18852C142.516 5.22682 142.181 5.29927 141.966 5.40231C140.741 6.00458 139.981 7.51581 140.136 8.90587L140.18 9.18214C140.222 9.39563 140.344 9.64538 140.53 9.90983C140.716 10.1732 140.961 10.4462 141.242 10.706C141.734 11.1614 142.33 11.5716 142.9 11.8186L143.142 11.9144C144.414 12.3574 145.331 12.8935 145.804 13.4416C146.041 13.7167 146.174 14.0031 146.172 14.2874C146.17 14.5741 146.032 14.8405 145.767 15.0742L145.766 15.075C145.623 15.1987 145.406 15.2926 145.16 15.3606C144.911 15.4291 144.625 15.4732 144.335 15.4914C144.045 15.5097 143.749 15.5023 143.484 15.4658C143.285 15.4386 143.099 15.3948 142.943 15.3315L142.801 15.2631C142.681 15.1981 142.532 15.0461 142.389 14.8664C142.242 14.6829 142.091 14.4577 141.966 14.2326C141.793 13.9127 141.668 13.7375 141.527 13.6383C141.391 13.5424 141.226 13.5092 140.946 13.5092C140.46 13.5092 140.195 13.6092 140.07 13.8051C140.006 13.9051 139.971 14.0408 139.971 14.2249C139.971 14.4094 140.005 14.6368 140.076 14.9143L140.077 14.9159C140.197 15.4247 140.36 15.7895 140.64 16.108C140.923 16.4288 141.33 16.7091 141.95 17.0384C142.566 17.371 143.392 17.5406 144.221 17.5379Z" fill="#FFAA0F" stroke="#FFAA0F" stroke-width="0.188031"/>
<path d="M156.441 12.0706C156.431 13.5593 156.442 14.7606 156.472 15.6246C156.487 16.0564 156.508 16.4029 156.533 16.6585C156.545 16.7864 156.559 16.8909 156.574 16.9706C156.589 17.0508 156.604 17.099 156.615 17.1228C156.669 17.2259 156.774 17.3163 156.916 17.3854C157.059 17.4541 157.232 17.4988 157.41 17.5145C157.588 17.5302 157.769 17.5168 157.923 17.4735C158.038 17.4408 158.137 17.3923 158.211 17.3298L158.276 17.2622C158.276 17.2611 158.276 17.2596 158.277 17.258C158.28 17.2523 158.283 17.2442 158.287 17.234C158.294 17.2135 158.301 17.1856 158.309 17.1502C158.325 17.0793 158.34 16.9828 158.355 16.8603C158.385 16.6152 158.412 16.2725 158.435 15.8376C158.469 15.1855 158.494 14.3285 158.51 13.2849L158.521 12.1792L158.583 7.3467L158.584 7.26119L158.669 7.25435L159.486 7.1885L159.487 7.18764C160.326 7.1324 160.855 7.06674 161.202 6.94991C161.374 6.89211 161.496 6.82325 161.587 6.74039C161.678 6.65798 161.744 6.55763 161.797 6.42997C161.887 6.21234 161.919 6.07126 161.903 5.94852C161.886 5.82718 161.819 5.70607 161.669 5.53377L161.668 5.53206C161.586 5.43301 161.513 5.36513 161.399 5.31228C161.283 5.25788 161.116 5.21685 160.842 5.18829C160.291 5.13102 159.343 5.12501 157.573 5.125C156.533 5.125 155.553 5.14739 154.815 5.18315C154.445 5.20104 154.137 5.22206 153.912 5.24558C153.799 5.25734 153.709 5.27006 153.642 5.28235C153.609 5.28848 153.584 5.29401 153.564 5.29945C153.551 5.30334 153.544 5.30685 153.542 5.30801C153.49 5.34612 153.437 5.42922 153.395 5.55686C153.354 5.68251 153.328 5.83725 153.319 5.99641C153.31 6.15537 153.319 6.31532 153.347 6.45221C153.376 6.59171 153.421 6.69629 153.475 6.75493C153.474 6.75447 153.477 6.75596 153.483 6.76006C153.489 6.76397 153.498 6.7692 153.509 6.7746C153.533 6.78569 153.565 6.79801 153.606 6.81052C153.687 6.83549 153.796 6.86012 153.925 6.88321C154.184 6.92933 154.518 6.96735 154.863 6.98925C155.212 7.01143 155.541 7.04449 155.794 7.08075C155.92 7.09885 156.029 7.1181 156.113 7.13719C156.155 7.14668 156.191 7.15687 156.221 7.16712C156.248 7.17633 156.281 7.18958 156.304 7.20902L156.315 7.21757L156.323 7.22783C156.334 7.24436 156.339 7.26237 156.342 7.27059C156.346 7.28143 156.347 7.29359 156.349 7.30566C156.353 7.33018 156.357 7.36195 156.361 7.39886C156.368 7.47302 156.375 7.57552 156.381 7.70244C156.394 7.95683 156.404 8.3141 156.413 8.74747C156.431 9.61431 156.441 10.7897 156.441 12.0697V12.0706Z" fill="#FFAA0F" stroke="#FFAA0F" stroke-width="0.188031"/>
<path d="M123.509 24.1674C123.252 24.5319 123.337 33.1489 123.594 33.4141C123.979 33.7786 124.321 32.9169 124.236 31.7238C124.087 28.8405 125.284 26.8519 126.461 28.045C126.954 28.5421 126.996 28.8073 126.996 30.8621C126.996 33.1157 127.167 33.646 127.809 33.3146C128.13 33.1157 128.151 30.2324 127.831 28.4759C127.552 26.8519 126.547 26.0565 125.52 26.6199C124.6 27.117 124.171 26.7857 124.214 25.692C124.236 25.1616 124.257 24.5651 124.236 24.3332C124.214 23.9023 123.744 23.7697 123.509 24.1674Z" fill="white"/>
<path d="M45.3847 24.7958C45.1708 25.6907 45.2349 33.2139 45.4703 33.2139C45.5987 33.2139 45.7484 33.247 45.8555 33.2802C45.9411 33.3465 46.048 32.5511 46.1122 31.5568L46.2192 29.734L47.6101 29.6346C49.3861 29.5351 49.6643 29.3694 49.3219 28.7397C49.1721 28.4415 48.5516 28.2426 47.6529 28.1763L46.2192 28.0769V26.9169V25.757L47.9953 25.6575C49.5787 25.5581 49.7499 25.4918 49.7499 24.9284C49.7499 24.2987 49.6001 24.2656 47.6315 24.2656C45.8983 24.2656 45.4917 24.365 45.3847 24.7958Z" fill="white"/>
<path d="M113.922 25.1605C113.687 26.1878 112.66 29.6678 112.018 31.6894C111.355 33.7443 111.932 34.3408 112.682 32.3854L113.131 31.2254H114.714C116.254 31.2254 116.319 31.2585 116.576 32.1202C116.875 33.2471 117.197 33.6117 117.453 33.2139C117.667 32.8825 117.453 32.0208 116.02 27.149C115.292 24.7296 115.077 24.2656 114.65 24.2656C114.308 24.2656 114.072 24.5308 113.922 25.1605ZM115.249 27.8118C115.485 28.6404 115.634 29.5352 115.57 29.8004C115.42 30.3969 113.965 30.3638 113.816 29.7341C113.666 29.1707 114.351 26.2541 114.628 26.2541C114.735 26.2541 115.014 26.9501 115.249 27.8118Z" fill="white"/>
<path d="M67.0823 25.1594C67.0823 25.9547 66.6757 26.5844 66.1835 26.5844C65.9482 26.5844 65.7983 26.8165 65.7983 27.2473C65.7983 27.6782 65.9482 27.9101 66.2049 27.9101C66.8682 27.9101 67.1251 28.7387 67.0609 30.893C67.0394 32.0529 67.1036 33.0471 67.2535 33.2792C67.5958 33.8094 67.7028 33.2129 67.767 30.3958C67.8311 28.109 67.8311 28.0759 68.4731 27.9101C69.3076 27.6782 69.3076 26.8165 68.4731 26.5844C68.0452 26.4519 67.8098 26.1868 67.7242 25.6234C67.5744 24.6291 67.0823 24.2977 67.0823 25.1594Z" fill="white"/>
<path d="M88.0524 26.4881C87.8808 26.5875 87.5602 26.8859 87.3676 27.1841C87.0252 27.6481 86.9397 27.615 86.5973 27.151C86.3834 26.8196 86.1265 26.687 86.0623 26.8196C85.9768 26.919 85.9126 28.4104 85.9126 30.1338C85.9126 33.0171 85.934 33.216 86.3619 33.216C86.7471 33.216 86.7899 33.0502 86.7471 31.4595C86.6615 29.2389 87.0467 28.2778 88.1163 28.0127C88.9938 27.8138 89.3791 27.0516 88.8869 26.5544C88.5445 26.223 88.5016 26.223 88.0524 26.4881Z" fill="white"/>
<path d="M96.0974 26.629C95.3058 26.9604 94.6858 27.8221 94.3215 29.1809C94.065 30.1752 94.065 30.3741 94.4932 31.534C94.7497 32.2632 95.178 32.9922 95.4774 33.1911C96.1193 33.6551 97.7884 33.6551 98.3444 33.2242C98.8795 32.7603 98.9014 31.7328 98.3873 32.0974C97.1246 32.926 95.3277 32.3294 95.3277 31.07C95.3277 30.6723 95.6911 30.5729 97.1246 30.5729C99.5853 30.5729 99.8637 30.0095 98.6439 27.4575C98.2805 26.7284 96.9538 26.2976 96.0974 26.629ZM98.0239 28.2861C98.601 29.0152 98.3234 29.2472 96.8251 29.2472C95.713 29.2472 95.3277 29.1477 95.3277 28.8164C95.3277 27.7227 97.2743 27.3249 98.0239 28.2861Z" fill="white"/>
<path d="M135.554 26.5876C133.543 27.3499 133.222 31.7246 135.062 33.1828C135.747 33.7131 137.523 33.6468 138.101 33.0171C138.7 32.3543 138.4 31.6252 137.738 32.1886C137.031 32.7852 135.876 32.6194 135.255 31.8572C134.955 31.4926 134.699 31.0286 134.699 30.863C134.699 30.6972 135.554 30.5646 136.603 30.5646C138.808 30.5646 139.214 30.2001 138.722 28.7087C138.165 26.9191 136.924 26.0905 135.554 26.5876ZM137.288 27.9133C137.502 28.1121 137.695 28.4767 137.695 28.7418C137.695 29.1395 137.373 29.2389 136.175 29.2389C135.062 29.2389 134.677 29.1395 134.742 28.8081C134.977 27.8138 136.496 27.2504 137.288 27.9133Z" fill="white"/>
<path d="M55.5276 28.8981C55.5276 32.6431 56.2124 33.9357 57.9456 33.4054C58.7587 33.1402 59.1653 33.1071 59.5932 33.2728C59.8499 33.3391 59.9356 32.8089 59.9784 30.2569C60.0211 28.3347 59.957 27.009 59.8072 26.777C59.422 26.1805 59.1653 27.2078 59.1653 29.2958C59.1653 30.9197 59.1011 31.2512 58.6089 31.8477C57.3465 33.3723 56.3836 32.2785 56.3836 29.3621C56.3836 27.3073 56.2337 26.5781 55.8272 26.5781C55.5919 26.5781 55.5276 27.1415 55.5276 28.8981Z" fill="white"/>
<path d="M75.1438 26.8599C74.8656 27.3239 74.994 31.0359 75.3364 32.1627C75.5931 33.0244 75.8499 33.3226 76.449 33.4883C76.877 33.6209 77.4762 33.5546 77.7757 33.3889C78.118 33.19 78.546 33.19 78.8456 33.3558C79.1238 33.5215 79.4233 33.5215 79.5303 33.3558C79.6374 33.19 79.6801 31.6656 79.6587 29.9421C79.5945 27.2907 79.5303 26.8268 79.2308 26.7273C78.8884 26.6279 78.8456 26.8931 78.8456 28.5833C78.8456 30.2404 78.76 30.7707 78.2892 31.5993C77.1551 33.7203 76.0639 32.5603 75.8713 29.0805C75.7429 27.0588 75.5076 26.2965 75.1438 26.8599Z" fill="white"/>
<path d="M144.842 27.7167C143.837 29.2744 143.837 30.8651 144.842 32.4229C145.442 33.3508 145.719 33.5497 146.511 33.5497C147.003 33.5497 147.56 33.4171 147.731 33.2514C147.902 33.0857 148.245 33.0526 148.522 33.2183C149.207 33.6491 149.314 33.2183 149.357 30.2686C149.4 26.5567 149.507 26.7556 147.41 26.6562C145.57 26.5899 145.57 26.5899 144.842 27.7167ZM147.495 27.9487C148.266 28.3464 148.737 29.9041 148.394 30.8983C147.795 32.6548 146.383 33.0526 145.506 31.7269C144.607 30.3017 144.885 28.5121 146.147 27.9487C146.511 27.783 146.789 27.6172 146.81 27.6172C146.832 27.5841 147.132 27.7498 147.495 27.9487Z" fill="white"/>
<path d="M42.7537 20.0847L162 19.7734" stroke="#FFAA0F" stroke-width="0.621885"/>
<path d="M42.5984 21.6473L161.845 21.3359" stroke="#FFAA0F" stroke-width="0.621885"/>
<defs>
<linearGradient id="paint0_linear_1567_587" x1="38.0135" y1="6.76953" x2="-3.78484" y2="13.5811" gradientUnits="userSpaceOnUse">
<stop offset="0.132066" stop-color="#C34D84"/>
<stop offset="0.394846" stop-color="#F45DA3"/>
<stop offset="0.841346" stop-color="#E5A14E"/>
</linearGradient>
<linearGradient id="paint1_linear_1567_587" x1="4.28915" y1="16.4453" x2="4.28915" y2="20.8036" gradientUnits="userSpaceOnUse">
<stop stop-color="#F18D65"/>
<stop offset="1" stop-color="#E077A1"/>
</linearGradient>
<linearGradient id="paint2_linear_1567_587" x1="33.0993" y1="23.4376" x2="33.0993" y2="28.6922" gradientUnits="userSpaceOnUse">
<stop stop-color="#F3916A"/>
<stop offset="1" stop-color="#FB9D78"/>
</linearGradient>
<linearGradient id="paint3_linear_1567_587" x1="16.1437" y1="24.586" x2="16.1437" y2="29.6515" gradientUnits="userSpaceOnUse">
<stop stop-color="#F18D65"/>
<stop offset="1" stop-color="#E077A1"/>
</linearGradient>
<linearGradient id="paint4_linear_1567_587" x1="8.30324" y1="23.2031" x2="8.30324" y2="26.0093" gradientUnits="userSpaceOnUse">
<stop stop-color="#F18D65"/>
<stop offset="1" stop-color="#E077A1"/>
</linearGradient>
<linearGradient id="paint5_linear_1567_587" x1="6.3747" y1="9.0469" x2="6.3747" y2="12.6697" gradientUnits="userSpaceOnUse">
<stop stop-color="#F18D65"/>
<stop offset="1" stop-color="#FFA480"/>
</linearGradient>
<linearGradient id="paint6_linear_1567_587" x1="22.0027" y1="18.5312" x2="22.0027" y2="21.831" gradientUnits="userSpaceOnUse">
<stop stop-color="#F3916A"/>
<stop offset="1" stop-color="#FB9D78"/>
</linearGradient>
<linearGradient id="paint7_linear_1567_587" x1="28.7459" y1="17.75" x2="28.7459" y2="21.2561" gradientUnits="userSpaceOnUse">
<stop stop-color="#F3916A"/>
<stop offset="1" stop-color="#FB9D78"/>
</linearGradient>
<linearGradient id="paint8_linear_1567_587" x1="13.5311" y1="14.1016" x2="13.5311" y2="18.1162" gradientUnits="userSpaceOnUse">
<stop stop-color="#F18D65"/>
<stop offset="0.326923" stop-color="#E59373"/>
</linearGradient>
<linearGradient id="paint9_linear_1567_587" x1="20.493" y1="2.41405" x2="20.493" y2="5.75986" gradientUnits="userSpaceOnUse">
<stop stop-color="#F3916A"/>
<stop offset="1" stop-color="#FB9D78"/>
</linearGradient>
<linearGradient id="paint10_linear_1567_587" x1="26.4225" y1="4.2255" x2="27.3715" y2="7.97787" gradientUnits="userSpaceOnUse">
<stop stop-color="#F3916A"/>
<stop offset="1" stop-color="#FB9D78"/>
</linearGradient>
<linearGradient id="paint11_linear_1567_587" x1="30.8039" y1="8.60586" x2="31.6776" y2="12.0608" gradientUnits="userSpaceOnUse">
<stop stop-color="#F3916A"/>
<stop offset="1" stop-color="#FB9D78"/>
</linearGradient>
<linearGradient id="paint12_linear_1567_587" x1="34.4101" y1="16.2855" x2="35.3273" y2="19.9125" gradientUnits="userSpaceOnUse">
<stop stop-color="#F3916A"/>
<stop offset="1" stop-color="#FB9D78"/>
</linearGradient>
<linearGradient id="paint13_linear_1567_587" x1="12.6139" y1="3.66406" x2="12.6139" y2="8.53263" gradientUnits="userSpaceOnUse">
<stop stop-color="#F3916A"/>
<stop offset="1" stop-color="#FB9D78"/>
</linearGradient>
<linearGradient id="paint14_linear_1567_587" x1="21.8012" y1="9.88606" x2="21.8012" y2="14.9726" gradientUnits="userSpaceOnUse">
<stop offset="0.0432692" stop-color="#F3916A"/>
<stop offset="0.745192" stop-color="#FB9D78"/>
</linearGradient>
<linearGradient id="paint15_linear_1567_587" x1="24.329" y1="27.0625" x2="24.329" y2="31.0106" gradientUnits="userSpaceOnUse">
<stop stop-color="#F18D65"/>
<stop offset="1" stop-color="#E077A1"/>
</linearGradient>
<linearGradient id="paint16_linear_1567_587" x1="27.1509" y1="30.9453" x2="27.1509" y2="34.059" gradientUnits="userSpaceOnUse">
<stop stop-color="#F18D65" stop-opacity="0.91"/>
<stop offset="0.576923" stop-color="#E077A1"/>
</linearGradient>
<linearGradient id="paint17_linear_1567_587" x1="29.2911" y1="35.3203" x2="29.2911" y2="37.4748" gradientUnits="userSpaceOnUse">
<stop stop-color="#F58D72"/>
<stop offset="1" stop-color="#F58D72"/>
</linearGradient>
</defs>
</svg>
