<svg width="186" height="72" viewBox="0 0 186 72" fill="none" xmlns="http://www.w3.org/2000/svg">
<path d="M29.854 1.36565C24.6686 5.9443 12.3014 11.5672 3.03981 13.5754L1.04405 13.9933C0.865887 14.0306 0.738281 14.1877 0.738281 14.3697V18.6628C0.738281 33.1484 5.61862 46.9111 14.6029 57.8356C18.2631 62.2804 24.2527 67.4481 29.4658 70.6612L31.4328 71.8788C31.5533 71.9534 31.7052 71.9556 31.828 71.8845L32.5992 71.4377C42.4153 65.7345 50.8173 56.8717 55.7808 46.9915C60.3006 38.0216 62.214 30.3102 62.4913 19.948L62.6484 14.3829C62.6537 14.195 62.5225 14.0308 62.338 13.9947L60.883 13.7093C58.5814 13.2541 52.5919 11.4601 49.4031 10.2552C43.5245 8.0328 36.7585 4.2842 33.4033 1.36565C32.61 0.673767 31.864 0.0959091 31.6446 0.0108643C31.6163 -0.0001297 31.5864 0.00387573 31.5597 0.0184555C31.3572 0.129158 30.6172 0.702316 29.854 1.36565ZM33.7361 6.42626C39.2264 10.3087 47.2402 13.9235 55.3648 16.1994L58.2815 17.0076C58.4435 17.0524 58.5575 17.1973 58.5631 17.3653L58.6369 19.5731C58.7755 23.7234 57.805 30.2299 56.3076 35.2905C53.4515 44.903 48.9317 52.4805 41.9439 59.4154C39.171 62.1733 32.3773 67.4749 31.6564 67.4749C31.0463 67.4749 24.8904 62.7892 22.4225 60.4329C15.9339 54.2477 11.8854 48.3035 8.64111 40.1637C6.09002 33.7107 4.454 25.196 4.67583 19.4393L4.7491 17.3638C4.75501 17.1965 4.86841 17.0523 5.02955 17.0071L8.00334 16.1726C11.4695 15.2087 18.0968 12.7721 20.842 11.4601C23.3653 10.2284 27.8575 7.63116 29.7153 6.31915C30.5599 5.70131 31.3336 5.19752 31.5568 5.12359C31.5857 5.11403 31.6162 5.11149 31.6453 5.12054C31.8691 5.19032 32.7443 5.76325 33.7361 6.42626Z" fill="#FFBE40"/>
<path d="M27.6885 62.8345C28.886 66.8717 34.7853 66.4955 35.4609 62.3394L35.4902 62.1353L35.7354 60.0464C42.1054 55.9407 47.5111 50.0111 50.8359 43.395C54.0673 36.9822 55.4559 31.3622 55.6533 24.0093L55.7568 20.3452C55.812 18.3907 54.4461 16.6825 52.5273 16.3062L51.5693 16.1177L51.5684 16.1187C50.4686 15.8999 47.4801 15.0241 45.4297 14.3101L44.6152 14.0161C40.9978 12.6485 36.9834 10.3785 35.2188 8.84521C34.9145 8.57986 34.6032 8.32047 34.3252 8.10596C34.1888 8.0007 34.0328 7.8848 33.874 7.77686C33.8109 7.73392 33.4339 7.46913 32.9531 7.28271C31.7292 6.80816 30.5527 7.05161 29.7441 7.49365V7.49463C29.3525 7.70886 28.9439 8.03176 28.8047 8.14111C28.5529 8.33883 28.2576 8.58252 27.9609 8.84033L27.9502 8.8501L27.9385 8.85986C26.6438 10.003 24.1483 11.4996 21.0459 12.9116C18.0066 14.2949 14.7118 15.4491 11.9883 16.0415L10.6836 16.3149H10.6826C8.82961 16.7033 7.50195 18.3375 7.50195 20.231V23.0571C7.50197 33.4422 11.0042 43.3494 17.4834 51.228L17.4854 51.23C19.8664 54.1214 23.4806 57.3269 26.8848 59.6313L27.6348 62.6353L27.6885 62.8345ZM31.2969 50.4771C30.0643 49.5378 28.7749 48.4779 28.1143 47.8472L28.1123 47.8452C24.2196 44.1346 21.8652 40.6695 19.9346 35.8257C18.583 32.4029 17.6899 28.0271 17.5879 24.8696C19.9585 24.1626 23.6705 22.7992 25.6924 21.8862L26.1016 21.6958L26.1162 21.6899L26.1299 21.6831C27.6069 20.9622 29.9917 19.6082 31.585 18.5913C35.4155 21.1349 40.5056 23.3831 45.6152 24.8735C45.5257 27.1438 45.0116 30.3384 44.2432 32.937L44.0811 33.4712C42.3723 38.9496 39.7577 43.24 35.7393 47.228L35.7363 47.231C34.9815 47.9817 33.5439 49.2006 32.1768 50.27C31.9795 50.4243 31.7866 50.5689 31.6045 50.7075C31.5046 50.6325 31.4012 50.5566 31.2969 50.4771Z" fill="#FFBE40" stroke="#FFBE40" stroke-width="7.49538"/>
<path d="M29.0264 43.4102C29.9301 46.0236 33.7825 45.7776 34.3467 43.0703L34.3926 42.792V42.7861C36.4086 41.3482 38.1099 39.4013 39.2012 37.2305H39.2021C40.3471 34.9582 40.8464 32.9282 40.916 30.3428L40.9502 29.1592C40.9884 27.8041 40.0413 26.6194 38.7109 26.3584L38.4014 26.2979C38.096 26.2365 36.9783 25.9088 36.3926 25.6875L36.3936 25.6865C35.3254 25.2827 34.2021 24.6287 33.8066 24.2861C33.6914 24.1856 33.5684 24.0814 33.4502 23.9902C33.3929 23.946 33.3161 23.8886 33.2314 23.8311C33.2165 23.8208 33.0748 23.7212 32.8672 23.6182L32.6367 23.5156C31.7654 23.178 30.9285 23.3513 30.3545 23.665C30.0993 23.8045 29.8672 23.9936 29.8467 24.0098C29.7454 24.0893 29.6303 24.1834 29.5166 24.2822L29.501 24.2959C29.2457 24.5213 28.5956 24.933 27.6416 25.3672C26.8424 25.7309 26.003 26.0319 25.3008 26.2109L25.0088 26.2803L24.6035 26.3652C23.3185 26.6343 22.3975 27.7673 22.3975 29.0801V29.9932C22.3975 33.6836 23.6436 37.2195 25.96 40.0361L25.9609 40.0371C26.7135 40.951 27.7759 41.923 28.8359 42.7002L28.9463 43.1387L29.0264 43.4102ZM31.5615 36.9307L31.5596 36.9297C30.4539 35.8757 29.8154 34.9354 29.2734 33.5781L29.2744 33.5771C29.0334 32.9676 28.8502 32.2528 28.7383 31.6045C29.2643 31.4162 29.8004 31.2116 30.2119 31.0332L30.5273 30.8906L30.5469 30.8809C30.8491 30.7333 31.2543 30.5134 31.6543 30.2832C32.5504 30.7928 33.5569 31.2463 34.5879 31.6162C34.5231 31.9992 34.4361 32.4018 34.3281 32.7666V32.7676C33.8473 34.3839 33.1183 35.5994 31.958 36.751L31.9561 36.7529C31.8961 36.8126 31.7964 36.9031 31.6631 37.0195C31.6212 36.9825 31.5859 36.954 31.5615 36.9307Z" fill="#FFBE40" stroke="#FFBE40" stroke-width="5.38429"/>
<path d="M24.8843 50.556L7.58143 34.6422L27.1952 62.0466L61.4374 20.7434L24.8843 50.556Z" fill="white"/>
<g filter="url(#filter0_d_2139_355)">
<path d="M37.3984 0.512791C37.3984 0.229585 37.628 0 37.9112 0H44.3211C44.6043 0 44.8339 0.229584 44.8339 0.51279V29.6078C44.8339 29.7641 44.7626 29.9119 44.6402 30.0091L38.2304 35.1056C37.8944 35.3728 37.3984 35.1335 37.3984 34.7042V0.512791Z" fill="#00C186"/>
</g>
<g filter="url(#filter1_d_2139_355)">
<path d="M23.5508 24.6144C23.5508 24.3311 23.3212 24.1016 23.038 24.1016H16.3717C16.0885 24.1016 15.8589 24.3311 15.8589 24.6144L15.8589 38.3134C15.8589 38.4849 15.9446 38.645 16.0873 38.7401L22.7535 43.1843C23.0943 43.4115 23.5508 43.1672 23.5508 42.7576V24.6144Z" fill="#00C186"/>
</g>
<g filter="url(#filter2_d_2139_355)">
<path d="M25.8672 15.3839C25.8672 15.1007 26.0968 14.8711 26.38 14.8711H33.0462C33.3294 14.8711 33.559 15.1007 33.559 15.3839L33.559 36.1498C33.559 36.2868 33.5042 36.4181 33.4068 36.5144L26.7406 43.108C26.4167 43.4283 25.8672 43.1989 25.8672 42.7434V15.3839Z" fill="#00C186"/>
</g>
<path d="M77.8484 28.2404C78.6141 28.3771 79.2637 28.7805 79.797 29.4505C80.3303 30.1206 80.5969 30.8795 80.5969 31.7273C80.5969 32.4521 80.4055 33.1084 80.0226 33.6964C79.6534 34.2708 79.1132 34.7289 78.4022 35.0707C77.6911 35.3989 76.8638 35.563 75.9203 35.563H70.2181V21.3074H75.6536C76.6245 21.3074 77.4586 21.4715 78.156 21.7997C78.8534 22.1279 79.3799 22.5723 79.7354 23.133C80.091 23.6799 80.2687 24.2953 80.2687 24.979C80.2687 25.7995 80.0499 26.4832 79.6124 27.0302C79.1748 27.5771 78.5868 27.9805 77.8484 28.2404ZM72.5564 27.2968H75.4485C76.2143 27.2968 76.8091 27.1259 77.233 26.784C77.6706 26.4285 77.8894 25.9225 77.8894 25.2662C77.8894 24.6235 77.6706 24.1244 77.233 23.7688C76.8091 23.3996 76.2143 23.215 75.4485 23.215H72.5564V27.2968ZM75.7152 33.6554C76.5083 33.6554 77.1305 33.464 77.5817 33.0811C78.033 32.6982 78.2586 32.1649 78.2586 31.4812C78.2586 30.7838 78.0193 30.23 77.5407 29.8197C77.0621 29.4095 76.4262 29.2044 75.6331 29.2044H72.5564V33.6554H75.7152ZM90.5426 35.563L87.2608 29.8608H85.4763V35.563H83.138V21.3074H88.0607C89.1547 21.3074 90.0777 21.4989 90.8298 21.8818C91.5956 22.2646 92.163 22.7774 92.5323 23.4201C92.9151 24.0628 93.1066 24.7807 93.1066 25.5738C93.1066 26.5037 92.8331 27.3515 92.2861 28.1173C91.7528 28.8694 90.9255 29.3822 89.8042 29.6557L93.3322 35.563H90.5426ZM85.4763 27.9942H88.0607C88.9359 27.9942 89.5923 27.7754 90.0298 27.3378C90.4811 26.9003 90.7067 26.3123 90.7067 25.5738C90.7067 24.8354 90.4879 24.2611 90.0504 23.8509C89.6128 23.427 88.9496 23.215 88.0607 23.215H85.4763V27.9942ZM102.6 35.7066C101.274 35.7066 100.05 35.3989 98.9285 34.7835C97.8209 34.1545 96.9389 33.2862 96.2825 32.1786C95.6398 31.0573 95.3185 29.7992 95.3185 28.4044C95.3185 27.0097 95.6398 25.7585 96.2825 24.6508C96.9389 23.5432 97.8209 22.6817 98.9285 22.0664C100.05 21.4373 101.274 21.1228 102.6 21.1228C103.94 21.1228 105.164 21.4373 106.272 22.0664C107.393 22.6817 108.275 23.5432 108.918 24.6508C109.56 25.7585 109.882 27.0097 109.882 28.4044C109.882 29.7992 109.56 31.0573 108.918 32.1786C108.275 33.2862 107.393 34.1545 106.272 34.7835C105.164 35.3989 103.94 35.7066 102.6 35.7066ZM102.6 33.6759C103.544 33.6759 104.385 33.464 105.123 33.0401C105.861 32.6025 106.436 31.9871 106.846 31.194C107.27 30.3872 107.482 29.4574 107.482 28.4044C107.482 27.3515 107.27 26.4285 106.846 25.6354C106.436 24.8423 105.861 24.2338 105.123 23.8098C104.385 23.3859 103.544 23.174 102.6 23.174C101.657 23.174 100.816 23.3859 100.077 23.8098C99.3387 24.2338 98.7576 24.8423 98.3337 25.6354C97.9234 26.4285 97.7183 27.3515 97.7183 28.4044C97.7183 29.4574 97.9234 30.3872 98.3337 31.194C98.7576 31.9871 99.3387 32.6025 100.077 33.0401C100.816 33.464 101.657 33.6759 102.6 33.6759ZM120.039 35.563L114.521 29.1839V35.563H112.183V21.3074H114.521V27.8096L120.059 21.3074H122.992L116.798 28.4455L123.095 35.563H120.039ZM127.501 23.1945V27.3789H132.424V29.2864H127.501V33.6554H133.039V35.563H125.163V21.2869H133.039V23.1945H127.501ZM143.324 35.563L140.042 29.8608H138.258V35.563H135.919V21.3074H140.842C141.936 21.3074 142.859 21.4989 143.611 21.8818C144.377 22.2646 144.944 22.7774 145.314 23.4201C145.696 24.0628 145.888 24.7807 145.888 25.5738C145.888 26.5037 145.614 27.3515 145.067 28.1173C144.534 28.8694 143.707 29.3822 142.585 29.6557L146.113 35.563H143.324ZM138.258 27.9942H140.842C141.717 27.9942 142.374 27.7754 142.811 27.3378C143.262 26.9003 143.488 26.3123 143.488 25.5738C143.488 24.8354 143.269 24.2611 142.832 23.8509C142.394 23.427 141.731 23.215 140.842 23.215H138.258V27.9942ZM160.71 35.7066C159.383 35.7066 158.159 35.3989 157.038 34.7835C155.93 34.1545 155.048 33.2862 154.392 32.1786C153.749 31.0573 153.428 29.7992 153.428 28.4044C153.428 27.0097 153.749 25.7585 154.392 24.6508C155.048 23.5432 155.93 22.6817 157.038 22.0664C158.159 21.4373 159.383 21.1228 160.71 21.1228C162.05 21.1228 163.274 21.4373 164.381 22.0664C165.502 22.6817 166.384 23.5432 167.027 24.6508C167.67 25.7585 167.991 27.0097 167.991 28.4044C167.991 29.7992 167.67 31.0573 167.027 32.1786C166.384 33.2862 165.502 34.1545 164.381 34.7835C163.274 35.3989 162.05 35.7066 160.71 35.7066ZM160.71 33.6759C161.653 33.6759 162.494 33.464 163.232 33.0401C163.971 32.6025 164.545 31.9871 164.955 31.194C165.379 30.3872 165.591 29.4574 165.591 28.4044C165.591 27.3515 165.379 26.4285 164.955 25.6354C164.545 24.8423 163.971 24.2338 163.232 23.8098C162.494 23.3859 161.653 23.174 160.71 23.174C159.766 23.174 158.925 23.3859 158.187 23.8098C157.448 24.2338 156.867 24.8423 156.443 25.6354C156.033 26.4285 155.828 27.3515 155.828 28.4044C155.828 29.4574 156.033 30.3872 156.443 31.194C156.867 31.9871 157.448 32.6025 158.187 33.0401C158.925 33.464 159.766 33.6759 160.71 33.6759ZM182.004 35.563H179.666L172.63 24.9175V35.563H170.292V21.2869H172.63L179.666 31.9119V21.2869H182.004V35.563Z" fill="#00C186"/>
<path d="M70.5478 42.9206C70.5478 42.0755 70.7324 41.3207 71.1016 40.6561C71.4708 39.9833 71.9754 39.4623 72.6153 39.0931C73.2553 38.7157 73.9691 38.527 74.7567 38.527C75.7167 38.527 76.5371 38.7567 77.2181 39.2162C77.9073 39.6675 78.4078 40.3074 78.7196 41.1361H77.7104C77.4643 40.5536 77.0869 40.0982 76.5782 39.77C76.0777 39.4418 75.4705 39.2777 74.7567 39.2777C74.125 39.2777 73.5548 39.4254 73.0461 39.7208C72.5456 40.0162 72.1518 40.4428 71.8646 41.0007C71.5774 41.5504 71.4339 42.1904 71.4339 42.9206C71.4339 43.6508 71.5774 44.2908 71.8646 44.8405C72.1518 45.3902 72.5456 45.8127 73.0461 46.1081C73.5548 46.4035 74.125 46.5511 74.7567 46.5511C75.4705 46.5511 76.0777 46.3912 76.5782 46.0712C77.0869 45.743 77.4643 45.2917 77.7104 44.7174H78.7196C78.4078 45.5379 77.9073 46.1737 77.2181 46.625C76.5289 47.0762 75.7085 47.3019 74.7567 47.3019C73.9691 47.3019 73.2553 47.1173 72.6153 46.7481C71.9754 46.3706 71.4708 45.8496 71.1016 45.1851C70.7324 44.5205 70.5478 43.7657 70.5478 42.9206ZM85.0144 47.228L82.8853 43.6344H81.2977V47.228H80.4362V38.6255H83.0207C83.9806 38.6255 84.7067 38.8552 85.199 39.3147C85.6995 39.7741 85.9497 40.3772 85.9497 41.1238C85.9497 41.7473 85.7692 42.2806 85.4082 42.7237C85.0554 43.1585 84.5303 43.4416 83.8329 43.5729L86.0482 47.228H85.0144ZM81.2977 42.9329H83.033C83.7058 42.9329 84.2103 42.7688 84.5467 42.4406C84.8913 42.1124 85.0636 41.6735 85.0636 41.1238C85.0636 40.5577 84.8995 40.1228 84.5713 39.8192C84.2432 39.5075 83.7263 39.3516 83.0207 39.3516H81.2977V42.9329ZM93.3451 38.6255L90.5884 43.8805V47.228H89.7269V43.8805L86.9455 38.6255H87.9178L90.1576 43.0929L92.3852 38.6255H93.3451ZM100.107 41.0992C100.107 41.8376 99.8652 42.4324 99.3811 42.8837C98.8971 43.3349 98.1709 43.5606 97.2028 43.5606H95.4675V47.228H94.606V38.6255H97.2028C98.1627 38.6255 98.8847 38.8511 99.3688 39.3023C99.8611 39.7536 100.107 40.3525 100.107 41.0992ZM97.2028 42.8221C98.5484 42.8221 99.2211 42.2478 99.2211 41.0992C99.2211 40.5248 99.0611 40.09 98.7412 39.7946C98.4212 39.4993 97.9084 39.3516 97.2028 39.3516H95.4675V42.8221H97.2028ZM106.586 38.6255V39.3393H104.199V47.228H103.337V39.3393H100.937V38.6255H106.586ZM111.811 47.3142C111.015 47.3142 110.293 47.1296 109.645 46.7604C108.997 46.3829 108.484 45.862 108.107 45.1974C107.737 44.5246 107.553 43.7657 107.553 42.9206C107.553 42.0755 107.737 41.3207 108.107 40.6561C108.484 39.9833 108.997 39.4623 109.645 39.0931C110.293 38.7157 111.015 38.527 111.811 38.527C112.615 38.527 113.341 38.7157 113.989 39.0931C114.637 39.4623 115.146 39.9833 115.515 40.6561C115.885 41.3207 116.069 42.0755 116.069 42.9206C116.069 43.7657 115.885 44.5246 115.515 45.1974C115.146 45.862 114.637 46.3829 113.989 46.7604C113.341 47.1296 112.615 47.3142 111.811 47.3142ZM111.811 46.5635C112.451 46.5635 113.025 46.4158 113.534 46.1204C114.043 45.825 114.445 45.4025 114.74 44.8528C115.035 44.2949 115.183 43.6508 115.183 42.9206C115.183 42.1904 115.035 41.5504 114.74 41.0007C114.445 40.451 114.043 40.0285 113.534 39.7331C113.025 39.4377 112.451 39.29 111.811 39.29C111.171 39.29 110.597 39.4377 110.088 39.7331C109.579 40.0285 109.177 40.451 108.882 41.0007C108.587 41.5504 108.439 42.1904 108.439 42.9206C108.439 43.6508 108.587 44.2949 108.882 44.8528C109.177 45.4025 109.579 45.825 110.088 46.1204C110.597 46.4158 111.171 46.5635 111.811 46.5635ZM121.884 39.327V42.5391H125.146V43.2529H121.884V46.5142H125.515V47.228H121.023V38.6132H125.515V39.327H121.884ZM130.314 42.9329L132.923 47.228H131.963L129.772 43.6344L127.692 47.228H126.732L129.329 42.896L126.732 38.6255H127.692L129.871 42.2068L131.975 38.6255H132.935L130.314 42.9329ZM134.018 42.9206C134.018 42.0755 134.202 41.3207 134.571 40.6561C134.941 39.9833 135.445 39.4623 136.085 39.0931C136.725 38.7157 137.439 38.527 138.226 38.527C139.186 38.527 140.007 38.7567 140.688 39.2162C141.377 39.6675 141.878 40.3074 142.189 41.1361H141.18C140.934 40.5536 140.557 40.0982 140.048 39.77C139.547 39.4418 138.94 39.2777 138.226 39.2777C137.595 39.2777 137.025 39.4254 136.516 39.7208C136.015 40.0162 135.622 40.4428 135.334 41.0007C135.047 41.5504 134.904 42.1904 134.904 42.9206C134.904 43.6508 135.047 44.2908 135.334 44.8405C135.622 45.3902 136.015 45.8127 136.516 46.1081C137.025 46.4035 137.595 46.5511 138.226 46.5511C138.94 46.5511 139.547 46.3912 140.048 46.0712C140.557 45.743 140.934 45.2917 141.18 44.7174H142.189C141.878 45.5379 141.377 46.1737 140.688 46.625C139.999 47.0762 139.178 47.3019 138.226 47.3019C137.439 47.3019 136.725 47.1173 136.085 46.7481C135.445 46.3706 134.941 45.8496 134.571 45.1851C134.202 44.5205 134.018 43.7657 134.018 42.9206ZM150.293 38.6255V47.228H149.432V43.2037H144.767V47.228H143.906V38.6255H144.767V42.4899H149.432V38.6255H150.293ZM157.243 45.1851H153.33L152.579 47.228H151.668L154.806 38.7362H155.779L158.905 47.228H157.994L157.243 45.1851ZM156.985 44.4713L155.286 39.8192L153.588 44.4713H156.985ZM166.773 47.228H165.911L161.149 39.9915V47.228H160.287V38.6255H161.149L165.911 45.8496V38.6255H166.773V47.228ZM175.493 41.1361C175.247 40.57 174.869 40.1269 174.361 39.8069C173.86 39.4787 173.27 39.3147 172.589 39.3147C171.949 39.3147 171.374 39.4623 170.866 39.7577C170.357 40.0531 169.955 40.4756 169.659 41.0253C169.364 41.5668 169.216 42.1986 169.216 42.9206C169.216 43.6426 169.364 44.2785 169.659 44.8282C169.955 45.3779 170.357 45.8004 170.866 46.0958C171.374 46.3912 171.949 46.5388 172.589 46.5388C173.187 46.5388 173.725 46.4117 174.201 46.1573C174.685 45.8948 175.07 45.5256 175.358 45.0497C175.653 44.5656 175.821 44.0036 175.862 43.3636H172.244V42.6621H176.773V43.2898C176.732 44.0446 176.527 44.7297 176.158 45.3451C175.788 45.9522 175.292 46.4322 174.668 46.785C174.053 47.1378 173.36 47.3142 172.589 47.3142C171.793 47.3142 171.071 47.1296 170.423 46.7604C169.774 46.3829 169.262 45.862 168.884 45.1974C168.515 44.5246 168.33 43.7657 168.33 42.9206C168.33 42.0755 168.515 41.3207 168.884 40.6561C169.262 39.9833 169.774 39.4623 170.423 39.0931C171.071 38.7157 171.793 38.527 172.589 38.527C173.507 38.527 174.312 38.7567 175.001 39.2162C175.69 39.6757 176.19 40.3156 176.502 41.1361H175.493ZM179.212 39.327V42.5391H182.474V43.2529H179.212V46.5142H182.843V47.228H178.351V38.6132H182.843V39.327H179.212Z" fill="white"/>
<defs>
<filter id="filter0_d_2139_355" x="35.8857" y="0" width="8.94632" height="37.8843" filterUnits="userSpaceOnUse" color-interpolation-filters="sRGB">
<feFlood flood-opacity="0" result="BackgroundImageFix"/>
<feColorMatrix in="SourceAlpha" type="matrix" values="0 0 0 0 0 0 0 0 0 0 0 0 0 0 0 0 0 0 127 0" result="hardAlpha"/>
<feOffset dx="-1.15378" dy="2.30755"/>
<feGaussianBlur stdDeviation="0.179476"/>
<feComposite in2="hardAlpha" operator="out"/>
<feColorMatrix type="matrix" values="0 0 0 0 0 0 0 0 0 0 0 0 0 0 0 0 0 0 0.4 0"/>
<feBlend mode="normal" in2="BackgroundImageFix" result="effect1_dropShadow_2139_355"/>
<feBlend mode="normal" in="SourceGraphic" in2="effect1_dropShadow_2139_355" result="shape"/>
</filter>
<filter id="filter1_d_2139_355" x="14.7312" y="24.1016" width="8.81954" height="20.939" filterUnits="userSpaceOnUse" color-interpolation-filters="sRGB">
<feFlood flood-opacity="0" result="BackgroundImageFix"/>
<feColorMatrix in="SourceAlpha" type="matrix" values="0 0 0 0 0 0 0 0 0 0 0 0 0 0 0 0 0 0 127 0" result="hardAlpha"/>
<feOffset dx="-0.769184" dy="1.41017"/>
<feGaussianBlur stdDeviation="0.179476"/>
<feComposite in2="hardAlpha" operator="out"/>
<feColorMatrix type="matrix" values="0 0 0 0 0 0 0 0 0 0 0 0 0 0 0 0 0 0 0.4 0"/>
<feBlend mode="normal" in2="BackgroundImageFix" result="effect1_dropShadow_2139_355"/>
<feBlend mode="normal" in="SourceGraphic" in2="effect1_dropShadow_2139_355" result="shape"/>
</filter>
<filter id="filter2_d_2139_355" x="24.7391" y="14.8711" width="8.81954" height="30.1554" filterUnits="userSpaceOnUse" color-interpolation-filters="sRGB">
<feFlood flood-opacity="0" result="BackgroundImageFix"/>
<feColorMatrix in="SourceAlpha" type="matrix" values="0 0 0 0 0 0 0 0 0 0 0 0 0 0 0 0 0 0 127 0" result="hardAlpha"/>
<feOffset dx="-0.769184" dy="1.41017"/>
<feGaussianBlur stdDeviation="0.179476"/>
<feComposite in2="hardAlpha" operator="out"/>
<feColorMatrix type="matrix" values="0 0 0 0 0 0 0 0 0 0 0 0 0 0 0 0 0 0 0.4 0"/>
<feBlend mode="normal" in2="BackgroundImageFix" result="effect1_dropShadow_2139_355"/>
<feBlend mode="normal" in="SourceGraphic" in2="effect1_dropShadow_2139_355" result="shape"/>
</filter>
</defs>
</svg>
